<svg width="29" height="29" viewBox="0 0 29 29" xmlns="http://www.w3.org/2000/svg">
    <g fill="none" fill-rule="evenodd">
        <path d="M14.5 29C22.508 29 29 22.508 29 14.5S22.508 0 14.5 0 0 6.492 0 14.5 6.492 29 14.5 29z" fill="#EA4C89" fill-rule="nonzero"/>
        <path d="M14.5 0C6.495 0 0 6.495 0 14.5 0 22.505 6.495 29 14.5 29 22.49 29 29 22.505 29 14.5 29 6.495 22.49 0 14.5 0zm9.578 6.684a12.329 12.329 0 0 1 2.799 7.706c-.41-.079-4.498-.912-8.618-.393-.095-.205-.173-.425-.268-.645a36.942 36.942 0 0 0-.817-1.793c4.56-1.856 6.636-4.53 6.904-4.875zM14.5 2.139c3.145 0 6.023 1.18 8.21 3.114-.22.314-2.092 2.815-6.496 4.466-2.029-3.727-4.277-6.778-4.623-7.25.927-.22 1.902-.33 2.909-.33zM9.232 3.303c.33.44 2.532 3.507 4.592 7.155-5.788 1.541-10.899 1.51-11.45 1.51.803-3.837 3.398-7.03 6.858-8.665zM2.107 14.516v-.378c.535.016 6.543.095 12.723-1.761.362.692.692 1.4 1.007 2.107l-.488.142c-6.385 2.06-9.782 7.69-10.065 8.162a12.356 12.356 0 0 1-3.177-8.272zM14.5 26.893a12.3 12.3 0 0 1-7.596-2.61c.22-.457 2.736-5.3 9.72-7.739.03-.015.046-.015.078-.031 1.746 4.513 2.453 8.304 2.642 9.389-1.494.645-3.13.99-4.844.99zm6.904-2.123c-.126-.755-.786-4.372-2.406-8.823 3.884-.613 7.281.393 7.706.535-.535 3.444-2.516 6.416-5.3 8.288z" fill="#C32361"/>
    </g>
</svg>
