<?xml version="1.0" encoding="UTF-8"?>
<svg width="255px" height="98px" viewBox="0 0 255 98" version="1.1" xmlns="http://www.w3.org/2000/svg" xmlns:xlink="http://www.w3.org/1999/xlink">
    <title>ABOUT Copy</title>
    <g id="Page-1" stroke="none" stroke-width="1" fill="none" fill-rule="evenodd" >
        <g id="ABOUT-Copy" transform="translate(0.402000, 0.860000)" fill="#FFFFFF" fill-rule="nonzero">
            <path d="M6.432,1.34 L0,95.14 L24.12,95.14 L24.12,43.416 L25.728,43.416 L25.728,95.14 L49.848,95.14 L43.952,1.34 L6.432,1.34 Z M31.222,75.844 L31.222,54.94 L18.224,54.94 L18.224,75.844 L31.222,75.844 Z" id="Shape"></path>
            <path d="M51.054,1.34 L51.054,95.14 L75.71,95.14 C84.018,95.14 90.517,93.1076667 95.207,89.043 C99.897,84.9783333 102.242,79.328 102.242,72.092 L102.242,70.35 C102.242,66.866 101.728333,63.7616667 100.701,61.037 C99.6736667,58.3123333 98.4006667,55.9673333 96.882,54.002 C95.3633333,52.0366667 93.733,50.5403333 91.991,49.513 C90.249,48.4856667 88.6633333,47.972 87.234,47.972 L87.234,46.364 C88.7526667,46.364 90.316,45.9173333 91.924,45.024 C93.532,44.1306667 95.006,42.7906667 96.346,41.004 C97.686,39.2173333 98.7803333,36.984 99.629,34.304 C100.477667,31.624 100.902,28.542 100.902,25.058 L100.902,24.388 C100.902,16.9733333 98.7133333,11.2783333 94.336,7.303 C89.9586667,3.32766667 83.75,1.34 75.71,1.34 L51.054,1.34 Z M75.174,22.244 L75.442,22.244 C76.1566667,22.244 76.5586667,22.3556667 76.648,22.579 C76.7373333,22.8023333 76.782,23.4053333 76.782,24.388 L76.782,34.572 C76.782,35.5546667 76.7373333,36.1576667 76.648,36.381 C76.5586667,36.6043333 76.1566667,36.716 75.442,36.716 L75.174,36.716 L75.174,22.244 Z M75.174,57.62 L75.442,57.62 C76.1566667,57.62 76.5586667,57.7316667 76.648,57.955 C76.7373333,58.1783333 76.782,58.7813333 76.782,59.764 L76.782,72.092 C76.782,73.0746667 76.7373333,73.6776667 76.648,73.901 C76.5586667,74.1243333 76.1566667,74.236 75.442,74.236 L75.174,74.236 L75.174,57.62 Z" id="Shape"></path>
            <path d="M103.582,24.79 L103.582,71.556 C103.582,75.576 104.118,79.1493333 105.19,82.276 C106.262,85.4026667 107.847667,88.0156667 109.947,90.115 C112.046333,92.2143333 114.614667,93.8 117.652,94.872 C120.689333,95.944 124.173333,96.48 128.104,96.48 C132.124,96.48 135.697333,95.9216667 138.824,94.805 C141.950667,93.6883333 144.608333,92.0803333 146.797,89.981 C148.985667,87.8816667 150.638333,85.291 151.755,82.209 C152.871667,79.127 153.43,75.576 153.43,71.556 L153.43,24.79 C153.43,20.8593333 152.871667,17.353 151.755,14.271 C150.638333,11.189 148.985667,8.59833333 146.797,6.499 C144.608333,4.39966667 141.950667,2.79166667 138.824,1.675 C135.697333,0.558333333 132.124,-4.54747351e-13 128.104,-4.54747351e-13 C124.173333,-4.54747351e-13 120.689333,0.536 117.652,1.608 C114.614667,2.68 112.046333,4.24333333 109.947,6.298 C107.847667,8.35266667 106.262,10.9433333 105.19,14.07 C104.118,17.1966667 103.582,20.77 103.582,24.79 Z M127.702,23.048 C127.702,22.6013333 127.724333,22.244 127.769,21.976 C127.813667,21.708 127.858333,21.507 127.903,21.373 C127.947667,21.239 128.037,21.1273333 128.171,21.038 C128.305,20.9486667 128.416667,20.904 128.506,20.904 C128.684667,20.904 128.818667,20.9486667 128.908,21.038 C128.997333,21.1273333 129.064333,21.239 129.109,21.373 C129.153667,21.507 129.198333,21.708 129.243,21.976 C129.287667,22.244 129.31,22.6013333 129.31,23.048 L129.31,73.432 C129.31,73.7893333 129.287667,74.102 129.243,74.37 C129.198333,74.638 129.153667,74.8613333 129.109,75.04 C129.064333,75.2186667 128.997333,75.3526667 128.908,75.442 C128.818667,75.5313333 128.684667,75.576 128.506,75.576 C128.416667,75.576 128.305,75.5313333 128.171,75.442 C128.037,75.3526667 127.947667,75.2186667 127.903,75.04 C127.858333,74.8613333 127.813667,74.638 127.769,74.37 C127.724333,74.102 127.702,73.7893333 127.702,73.432 L127.702,23.048 Z" id="Shape"></path>
            <path d="M155.038,1.34 L155.038,71.556 C155.038,75.576 155.574,79.1493333 156.646,82.276 C157.718,85.4026667 159.281333,88.0156667 161.336,90.115 C163.390667,92.2143333 165.936667,93.8 168.974,94.872 C172.011333,95.944 175.54,96.48 179.56,96.48 C183.58,96.48 187.175667,95.9216667 190.347,94.805 C193.518333,93.6883333 196.176,92.0803333 198.32,89.981 C200.464,87.8816667 202.094333,85.291 203.211,82.209 C204.327667,79.127 204.886,75.576 204.886,71.556 L204.886,1.34 L180.766,1.34 L180.766,73.432 C180.766,73.7893333 180.743667,74.102 180.699,74.37 C180.654333,74.638 180.609667,74.8613333 180.565,75.04 C180.520333,75.2186667 180.453333,75.3526667 180.364,75.442 C180.274667,75.5313333 180.140667,75.576 179.962,75.576 C179.872667,75.576 179.761,75.5313333 179.627,75.442 C179.493,75.3526667 179.403667,75.2186667 179.359,75.04 C179.314333,74.8613333 179.269667,74.638 179.225,74.37 C179.180333,74.102 179.158,73.7893333 179.158,73.432 L179.158,1.34 L155.038,1.34 Z" id="Path"></path>
            <polygon id="Path" points="254.466 1.34 206.226 1.34 206.226 22.244 218.286 22.244 218.286 95.14 242.406 95.14 242.406 22.244 254.466 22.244"></polygon>
        </g>
    </g>
</svg>