<?xml version="1.0" encoding="UTF-8"?>
<svg width="352px" height="98px" viewBox="0 0 352 98" version="1.1" xmlns="http://www.w3.org/2000/svg" xmlns:xlink="http://www.w3.org/1999/xlink">
    <title>CONTACT Copy</title>
    <g id="Page-1" stroke="none" stroke-width="1" fill="none" fill-rule="evenodd">
        <g id="CONTACT-Copy" transform="translate(0.804000, 0.860000)" fill="#FFFFFF" fill-rule="nonzero">
            <path d="M24.12,23.048 C24.12,22.6013333 24.1423333,22.244 24.187,21.976 C24.2316667,21.708 24.2763333,21.507 24.321,21.373 C24.3656667,21.239 24.455,21.1273333 24.589,21.038 C24.723,20.9486667 24.8346667,20.904 24.924,20.904 C25.1026667,20.904 25.2366667,20.9486667 25.326,21.038 C25.4153333,21.1273333 25.4823333,21.239 25.527,21.373 C25.5716667,21.507 25.6163333,21.708 25.661,21.976 C25.7056667,22.244 25.728,22.6013333 25.728,23.048 L25.728,46.9 L49.848,46.9 L49.848,24.79 C49.848,20.8593333 49.2896667,17.353 48.173,14.271 C47.0563333,11.189 45.4036667,8.59833333 43.215,6.499 C41.0263333,4.39966667 38.3686667,2.79166667 35.242,1.675 C32.1153333,0.558333333 28.542,-4.54747351e-13 24.522,-4.54747351e-13 C20.5913333,-4.54747351e-13 17.1073333,0.536 14.07,1.608 C11.0326667,2.68 8.46433333,4.24333333 6.365,6.298 C4.26566667,8.35266667 2.68,10.9433333 1.608,14.07 C0.536,17.1966667 0,20.77 0,24.79 L0,71.556 C0,75.576 0.536,79.1493333 1.608,82.276 C2.68,85.4026667 4.26566667,88.0156667 6.365,90.115 C8.46433333,92.2143333 11.0326667,93.8 14.07,94.872 C17.1073333,95.944 20.5913333,96.48 24.522,96.48 C28.542,96.48 32.1153333,95.9216667 35.242,94.805 C38.3686667,93.6883333 41.0263333,92.0803333 43.215,89.981 C45.4036667,87.8816667 47.0563333,85.291 48.173,82.209 C49.2896667,79.127 49.848,75.576 49.848,71.556 L49.848,49.58 L25.728,49.58 L25.728,73.432 C25.728,73.7893333 25.7056667,74.102 25.661,74.37 C25.6163333,74.638 25.5716667,74.8613333 25.527,75.04 C25.4823333,75.2186667 25.4153333,75.3526667 25.326,75.442 C25.2366667,75.5313333 25.1026667,75.576 24.924,75.576 C24.8346667,75.576 24.723,75.5313333 24.589,75.442 C24.455,75.3526667 24.3656667,75.2186667 24.321,75.04 C24.2763333,74.8613333 24.2316667,74.638 24.187,74.37 C24.1423333,74.102 24.12,73.7893333 24.12,73.432 L24.12,23.048 Z" id="Path"></path>
            <path d="M51.456,24.79 L51.456,71.556 C51.456,75.576 51.992,79.1493333 53.064,82.276 C54.136,85.4026667 55.7216667,88.0156667 57.821,90.115 C59.9203333,92.2143333 62.4886667,93.8 65.526,94.872 C68.5633333,95.944 72.0473333,96.48 75.978,96.48 C79.998,96.48 83.5713333,95.9216667 86.698,94.805 C89.8246667,93.6883333 92.4823333,92.0803333 94.671,89.981 C96.8596667,87.8816667 98.5123333,85.291 99.629,82.209 C100.745667,79.127 101.304,75.576 101.304,71.556 L101.304,24.79 C101.304,20.8593333 100.745667,17.353 99.629,14.271 C98.5123333,11.189 96.8596667,8.59833333 94.671,6.499 C92.4823333,4.39966667 89.8246667,2.79166667 86.698,1.675 C83.5713333,0.558333333 79.998,-4.54747351e-13 75.978,-4.54747351e-13 C72.0473333,-4.54747351e-13 68.5633333,0.536 65.526,1.608 C62.4886667,2.68 59.9203333,4.24333333 57.821,6.298 C55.7216667,8.35266667 54.136,10.9433333 53.064,14.07 C51.992,17.1966667 51.456,20.77 51.456,24.79 Z M75.576,23.048 C75.576,22.6013333 75.5983333,22.244 75.643,21.976 C75.6876667,21.708 75.7323333,21.507 75.777,21.373 C75.8216667,21.239 75.911,21.1273333 76.045,21.038 C76.179,20.9486667 76.2906667,20.904 76.38,20.904 C76.5586667,20.904 76.6926667,20.9486667 76.782,21.038 C76.8713333,21.1273333 76.9383333,21.239 76.983,21.373 C77.0276667,21.507 77.0723333,21.708 77.117,21.976 C77.1616667,22.244 77.184,22.6013333 77.184,23.048 L77.184,73.432 C77.184,73.7893333 77.1616667,74.102 77.117,74.37 C77.0723333,74.638 77.0276667,74.8613333 76.983,75.04 C76.9383333,75.2186667 76.8713333,75.3526667 76.782,75.442 C76.6926667,75.5313333 76.5586667,75.576 76.38,75.576 C76.2906667,75.576 76.179,75.5313333 76.045,75.442 C75.911,75.3526667 75.8216667,75.2186667 75.777,75.04 C75.7323333,74.8613333 75.6876667,74.638 75.643,74.37 C75.5983333,74.102 75.576,73.7893333 75.576,73.432 L75.576,23.048 Z" id="Shape"></path>
            <polygon id="Path" points="130.784 1.34 136.814 52.796 135.474 52.796 128.774 1.34 102.912 1.34 102.912 95.14 127.032 95.14 121.538 44.22 122.878 44.22 129.042 95.14 154.904 95.14 154.904 1.34"></polygon>
            <polygon id="Path" points="204.484 1.34 156.244 1.34 156.244 22.244 168.304 22.244 168.304 95.14 192.424 95.14 192.424 22.244 204.484 22.244"></polygon>
            <path d="M206.437697,1.34 L200.005697,95.14 L224.125697,95.14 L224.125697,43.416 L225.733697,43.416 L225.733697,95.14 L249.853697,95.14 L243.957697,1.34 L206.437697,1.34 Z M231.227697,75.844 L231.227697,54.94 L218.229697,54.94 L218.229697,75.844 L231.227697,75.844 Z" id="Shape"></path>
            <path d="M275.123395,23.048 C275.123395,22.6013333 275.145728,22.244 275.190395,21.976 C275.235062,21.708 275.279728,21.507 275.324395,21.373 C275.369062,21.239 275.458395,21.1273333 275.592395,21.038 C275.726395,20.9486667 275.838062,20.904 275.927395,20.904 C276.106062,20.904 276.240062,20.9486667 276.329395,21.038 C276.418728,21.1273333 276.485728,21.239 276.530395,21.373 C276.575062,21.507 276.619728,21.708 276.664395,21.976 C276.709062,22.244 276.731395,22.6013333 276.731395,23.048 L276.731395,46.9 L300.851395,46.9 L300.851395,24.79 C300.851395,20.8593333 300.293062,17.353 299.176395,14.271 C298.059728,11.189 296.407062,8.59833333 294.218395,6.499 C292.029728,4.39966667 289.372062,2.79166667 286.245395,1.675 C283.118728,0.558333333 279.545395,-4.54747351e-13 275.525395,-4.54747351e-13 C271.594728,-4.54747351e-13 268.110728,0.536 265.073395,1.608 C262.036062,2.68 259.467728,4.24333333 257.368395,6.298 C255.269062,8.35266667 253.683395,10.9433333 252.611395,14.07 C251.539395,17.1966667 251.003395,20.77 251.003395,24.79 L251.003395,71.556 C251.003395,75.576 251.539395,79.1493333 252.611395,82.276 C253.683395,85.4026667 255.269062,88.0156667 257.368395,90.115 C259.467728,92.2143333 262.036062,93.8 265.073395,94.872 C268.110728,95.944 271.594728,96.48 275.525395,96.48 C279.545395,96.48 283.118728,95.9216667 286.245395,94.805 C289.372062,93.6883333 292.029728,92.0803333 294.218395,89.981 C296.407062,87.8816667 298.059728,85.291 299.176395,82.209 C300.293062,79.127 300.851395,75.576 300.851395,71.556 L300.851395,49.58 L276.731395,49.58 L276.731395,73.432 C276.731395,73.7893333 276.709062,74.102 276.664395,74.37 C276.619728,74.638 276.575062,74.8613333 276.530395,75.04 C276.485728,75.2186667 276.418728,75.3526667 276.329395,75.442 C276.240062,75.5313333 276.106062,75.576 275.927395,75.576 C275.838062,75.576 275.726395,75.5313333 275.592395,75.442 C275.458395,75.3526667 275.369062,75.2186667 275.324395,75.04 C275.279728,74.8613333 275.235062,74.638 275.190395,74.37 C275.145728,74.102 275.123395,73.7893333 275.123395,73.432 L275.123395,23.048 Z" id="Path"></path>
            <polygon id="Path" points="350.431395 1.34 302.191395 1.34 302.191395 22.244 314.251395 22.244 314.251395 95.14 338.371395 95.14 338.371395 22.244 350.431395 22.244"></polygon>
        </g>
    </g>
</svg>