<?xml version="1.0" encoding="UTF-8"?>
<svg width="222px" height="98px" viewBox="0 0 222 98" version="1.1" xmlns="http://www.w3.org/2000/svg" xmlns:xlink="http://www.w3.org/1999/xlink">
    <title>WORK Copy</title>
    <g id="Page-1" stroke="none" stroke-width="1" fill="none" fill-rule="evenodd">
        <g id="WORK-Copy" transform="translate(0.402000, 0.860000)" fill="#FFFFFF" fill-rule="nonzero">
            <polygon id="Path" points="0 1.34 5.896 95.14 32.428 95.14 32.428 62.042 34.036 62.042 34.036 95.14 60.568 95.14 67 1.34 42.88 1.34 44.22 53.064 42.612 53.064 41.272 1.34 25.728 1.34 24.388 53.064 22.78 53.064 24.12 1.34"></polygon>
            <path d="M66.8096975,24.79 L66.8096975,71.556 C66.8096975,75.576 67.3456975,79.1493333 68.4176975,82.276 C69.4896975,85.4026667 71.0753641,88.0156667 73.1746975,90.115 C75.2740308,92.2143333 77.8423641,93.8 80.8796975,94.872 C83.9170308,95.944 87.4010308,96.48 91.3316975,96.48 C95.3516975,96.48 98.9250308,95.9216667 102.051697,94.805 C105.178364,93.6883333 107.836031,92.0803333 110.024697,89.981 C112.213364,87.8816667 113.866031,85.291 114.982697,82.209 C116.099364,79.127 116.657697,75.576 116.657697,71.556 L116.657697,24.79 C116.657697,20.8593333 116.099364,17.353 114.982697,14.271 C113.866031,11.189 112.213364,8.59833333 110.024697,6.499 C107.836031,4.39966667 105.178364,2.79166667 102.051697,1.675 C98.9250308,0.558333333 95.3516975,-4.54747351e-13 91.3316975,-4.54747351e-13 C87.4010308,-4.54747351e-13 83.9170308,0.536 80.8796975,1.608 C77.8423641,2.68 75.2740308,4.24333333 73.1746975,6.298 C71.0753641,8.35266667 69.4896975,10.9433333 68.4176975,14.07 C67.3456975,17.1966667 66.8096975,20.77 66.8096975,24.79 Z M90.9296975,23.048 C90.9296975,22.6013333 90.9520308,22.244 90.9966975,21.976 C91.0413641,21.708 91.0860308,21.507 91.1306975,21.373 C91.1753641,21.239 91.2646975,21.1273333 91.3986975,21.038 C91.5326975,20.9486667 91.6443641,20.904 91.7336975,20.904 C91.9123641,20.904 92.0463641,20.9486667 92.1356975,21.038 C92.2250308,21.1273333 92.2920308,21.239 92.3366975,21.373 C92.3813641,21.507 92.4260308,21.708 92.4706975,21.976 C92.5153641,22.244 92.5376975,22.6013333 92.5376975,23.048 L92.5376975,73.432 C92.5376975,73.7893333 92.5153641,74.102 92.4706975,74.37 C92.4260308,74.638 92.3813641,74.8613333 92.3366975,75.04 C92.2920308,75.2186667 92.2250308,75.3526667 92.1356975,75.442 C92.0463641,75.5313333 91.9123641,75.576 91.7336975,75.576 C91.6443641,75.576 91.5326975,75.5313333 91.3986975,75.442 C91.2646975,75.3526667 91.1753641,75.2186667 91.1306975,75.04 C91.0860308,74.8613333 91.0413641,74.638 90.9966975,74.37 C90.9520308,74.102 90.9296975,73.7893333 90.9296975,73.432 L90.9296975,23.048 Z" id="Shape"></path>
            <path d="M118.209395,1.34 L118.209395,95.14 L142.329395,95.14 L142.329395,61.64 L142.597395,61.64 C143.312062,61.64 143.714062,61.7516667 143.803395,61.975 C143.892728,62.1983333 143.937395,62.8013333 143.937395,63.784 L143.937395,75.844 C143.937395,79.5066667 144.004395,82.9013333 144.138395,86.028 C144.272395,89.1546667 144.652062,92.192 145.277395,95.14 L169.397395,95.14 C168.772062,92.192 168.392395,89.177 168.258395,86.095 C168.124395,83.013 168.057395,79.6853333 168.057395,76.112 L168.057395,75.04 C168.057395,71.4666667 167.610728,68.2506667 166.717395,65.392 C165.824062,62.5333333 164.707395,60.1213333 163.367395,58.156 C162.027395,56.1906667 160.553395,54.672 158.945395,53.6 C157.337395,52.528 155.818728,51.992 154.389395,51.992 L154.389395,50.384 C155.818728,50.384 157.337395,49.915 158.945395,48.977 C160.553395,48.039 162.027395,46.5873333 163.367395,44.622 C164.707395,42.6566667 165.824062,40.2223333 166.717395,37.319 C167.610728,34.4156667 168.057395,30.9986667 168.057395,27.068 L168.057395,26.398 C168.057395,17.822 165.868728,11.5016667 161.491395,7.437 C157.114062,3.37233333 150.905395,1.34 142.865395,1.34 L118.209395,1.34 Z M142.329395,22.244 L142.597395,22.244 C143.312062,22.244 143.714062,22.3556667 143.803395,22.579 C143.892728,22.8023333 143.937395,23.3606667 143.937395,24.254 L143.937395,38.592 C143.937395,39.5746667 143.892728,40.1776667 143.803395,40.401 C143.714062,40.6243333 143.312062,40.736 142.597395,40.736 L142.329395,40.736 L142.329395,22.244 Z" id="Shape"></path>
            <polygon id="Path" points="193.729092 1.34 169.609092 1.34 169.609092 95.14 193.729092 95.14 193.729092 58.692 195.337092 58.692 195.337092 95.14 220.797092 95.14 215.169092 48.24 220.797092 1.34 195.337092 1.34 195.337092 37.922 193.729092 37.922"></polygon>
        </g>
    </g>
</svg>