<?xml version="1.0" encoding="UTF-8"?>
<svg width="311px" height="817px" viewBox="0 0 311 817" version="1.1" xmlns="http://www.w3.org/2000/svg" xmlns:xlink="http://www.w3.org/1999/xlink">
    <title>ABOUT</title>
    <g id="Page-1" stroke="none" stroke-width="1" fill="none" fill-rule="evenodd" opacity="0.04">
        <g id="ABOUT" transform="translate(155.500000, 408.575000) rotate(90.000000) translate(-155.500000, -408.575000) translate(-252.785000, 253.775000)" fill="#FFFFFF" fill-rule="nonzero">
            <path d="M20.64,4.3 L0,305.3 L77.4,305.3 L77.4,139.32 L82.56,139.32 L82.56,305.3 L159.96,305.3 L141.04,4.3 L20.64,4.3 Z M100.19,243.38 L100.19,176.3 L58.48,176.3 L58.48,243.38 L100.19,243.38 Z" id="Shape"></path>
            <path d="M163.83,4.3 L163.83,305.3 L242.95,305.3 C269.61,305.3 290.465,298.778333 305.515,285.735 C320.565,272.691667 328.09,254.56 328.09,231.34 L328.09,225.75 C328.09,214.57 326.441667,204.608333 323.145,195.865 C319.848333,187.121667 315.763333,179.596667 310.89,173.29 C306.016667,166.983333 300.785,162.181667 295.195,158.885 C289.605,155.588333 284.516667,153.94 279.93,153.94 L279.93,148.78 C284.803333,148.78 289.82,147.346667 294.98,144.48 C300.14,141.613333 304.87,137.313333 309.17,131.58 C313.47,125.846667 316.981667,118.68 319.705,110.08 C322.428333,101.48 323.79,91.59 323.79,80.41 L323.79,78.26 C323.79,54.4666667 316.766667,36.1916667 302.72,23.435 C288.673333,10.6783333 268.75,4.3 242.95,4.3 L163.83,4.3 Z M241.23,71.38 L242.09,71.38 C244.383333,71.38 245.673333,71.7383333 245.96,72.455 C246.246667,73.1716667 246.39,75.1066667 246.39,78.26 L246.39,110.94 C246.39,114.093333 246.246667,116.028333 245.96,116.745 C245.673333,117.461667 244.383333,117.82 242.09,117.82 L241.23,117.82 L241.23,71.38 Z M241.23,184.9 L242.09,184.9 C244.383333,184.9 245.673333,185.258333 245.96,185.975 C246.246667,186.691667 246.39,188.626667 246.39,191.78 L246.39,231.34 C246.39,234.493333 246.246667,236.428333 245.96,237.145 C245.673333,237.861667 244.383333,238.22 242.09,238.22 L241.23,238.22 L241.23,184.9 Z" id="Shape"></path>
            <path d="M332.39,79.55 L332.39,229.62 C332.39,242.52 334.11,253.986667 337.55,264.02 C340.99,274.053333 346.078333,282.438333 352.815,289.175 C359.551667,295.911667 367.793333,301 377.54,304.44 C387.286667,307.88 398.466667,309.6 411.08,309.6 C423.98,309.6 435.446667,307.808333 445.48,304.225 C455.513333,300.641667 464.041667,295.481667 471.065,288.745 C478.088333,282.008333 483.391667,273.695 486.975,263.805 C490.558333,253.915 492.35,242.52 492.35,229.62 L492.35,79.55 C492.35,66.9366667 490.558333,55.685 486.975,45.795 C483.391667,35.905 478.088333,27.5916667 471.065,20.855 C464.041667,14.1183333 455.513333,8.95833333 445.48,5.375 C435.446667,1.79166667 423.98,3.67068284e-13 411.08,3.67068284e-13 C398.466667,3.67068284e-13 387.286667,1.72 377.54,5.16 C367.793333,8.6 359.551667,13.6166667 352.815,20.21 C346.078333,26.8033333 340.99,35.1166667 337.55,45.15 C334.11,55.1833333 332.39,66.65 332.39,79.55 Z M409.79,73.96 C409.79,72.5266667 409.861667,71.38 410.005,70.52 C410.148333,69.66 410.291667,69.015 410.435,68.585 C410.578333,68.155 410.865,67.7966667 411.295,67.51 C411.725,67.2233333 412.083333,67.08 412.37,67.08 C412.943333,67.08 413.373333,67.2233333 413.66,67.51 C413.946667,67.7966667 414.161667,68.155 414.305,68.585 C414.448333,69.015 414.591667,69.66 414.735,70.52 C414.878333,71.38 414.95,72.5266667 414.95,73.96 L414.95,235.64 C414.95,236.786667 414.878333,237.79 414.735,238.65 C414.591667,239.51 414.448333,240.226667 414.305,240.8 C414.161667,241.373333 413.946667,241.803333 413.66,242.09 C413.373333,242.376667 412.943333,242.52 412.37,242.52 C412.083333,242.52 411.725,242.376667 411.295,242.09 C410.865,241.803333 410.578333,241.373333 410.435,240.8 C410.291667,240.226667 410.148333,239.51 410.005,238.65 C409.861667,237.79 409.79,236.786667 409.79,235.64 L409.79,73.96 Z" id="Shape"></path>
            <path d="M497.51,4.3 L497.51,229.62 C497.51,242.52 499.23,253.986667 502.67,264.02 C506.11,274.053333 511.126667,282.438333 517.72,289.175 C524.313333,295.911667 532.483333,301 542.23,304.44 C551.976667,307.88 563.3,309.6 576.2,309.6 C589.1,309.6 600.638333,307.808333 610.815,304.225 C620.991667,300.641667 629.52,295.481667 636.4,288.745 C643.28,282.008333 648.511667,273.695 652.095,263.805 C655.678333,253.915 657.47,242.52 657.47,229.62 L657.47,4.3 L580.07,4.3 L580.07,235.64 C580.07,236.786667 579.998333,237.79 579.855,238.65 C579.711667,239.51 579.568333,240.226667 579.425,240.8 C579.281667,241.373333 579.066667,241.803333 578.78,242.09 C578.493333,242.376667 578.063333,242.52 577.49,242.52 C577.203333,242.52 576.845,242.376667 576.415,242.09 C575.985,241.803333 575.698333,241.373333 575.555,240.8 C575.411667,240.226667 575.268333,239.51 575.125,238.65 C574.981667,237.79 574.91,236.786667 574.91,235.64 L574.91,4.3 L497.51,4.3 Z" id="Path"></path>
            <polygon id="Path" points="816.57 4.3 661.77 4.3 661.77 71.38 700.47 71.38 700.47 305.3 777.87 305.3 777.87 71.38 816.57 71.38"></polygon>
        </g>
    </g>
</svg>