<?xml version="1.0" encoding="UTF-8"?>
<svg width="225px" height="814px" viewBox="0 0 225 814" version="1.1" xmlns="http://www.w3.org/2000/svg" xmlns:xlink="http://www.w3.org/1999/xlink">
    <title>CONTACT Copy</title>
    <g id="Page-1" stroke="none" stroke-width="1" fill="none" fill-rule="evenodd" opacity="0.04">
        <g id="CONTACT-Copy" transform="translate(112.350000, 407.311000) rotate(90.000000) translate(-112.350000, -407.311000) translate(-294.307328, 295.351000)" fill="#FFFFFF" fill-rule="nonzero">
            <path d="M55.98,53.492 C55.98,52.4553333 56.0318333,51.626 56.1355,51.004 C56.2391667,50.382 56.3428333,49.9155 56.4465,49.6045 C56.5501667,49.2935 56.7575,49.0343333 57.0685,48.827 C57.3795,48.6196667 57.6386667,48.516 57.846,48.516 C58.2606667,48.516 58.5716667,48.6196667 58.779,48.827 C58.9863333,49.0343333 59.1418333,49.2935 59.2455,49.6045 C59.3491667,49.9155 59.4528333,50.382 59.5565,51.004 C59.6601667,51.626 59.712,52.4553333 59.712,53.492 L59.712,108.85 L115.692,108.85 L115.692,57.535 C115.692,48.4123333 114.396167,40.2745 111.8045,33.1215 C109.212833,25.9685 105.377167,19.9558333 100.2975,15.0835 C95.2178333,10.2111667 89.0496667,6.47916667 81.793,3.8875 C74.5363333,1.29583333 66.243,3.4661507e-13 56.913,3.4661507e-13 C47.7903333,3.4661507e-13 39.7043333,1.244 32.655,3.732 C25.6056667,6.22 19.6448333,9.84833333 14.7725,14.617 C9.90016667,19.3856667 6.22,25.3983333 3.732,32.655 C1.244,39.9116667 -9.09494702e-13,48.205 -9.09494702e-13,57.535 L-9.09494702e-13,166.074 C-9.09494702e-13,175.404 1.244,183.697333 3.732,190.954 C6.22,198.210667 9.90016667,204.275167 14.7725,209.1475 C19.6448333,214.019833 25.6056667,217.7 32.655,220.188 C39.7043333,222.676 47.7903333,223.92 56.913,223.92 C66.243,223.92 74.5363333,222.624167 81.793,220.0325 C89.0496667,217.440833 95.2178333,213.708833 100.2975,208.8365 C105.377167,203.964167 109.212833,197.9515 111.8045,190.7985 C114.396167,183.6455 115.692,175.404 115.692,166.074 L115.692,115.07 L59.712,115.07 L59.712,170.428 C59.712,171.257333 59.6601667,171.983 59.5565,172.605 C59.4528333,173.227 59.3491667,173.745333 59.2455,174.16 C59.1418333,174.574667 58.9863333,174.885667 58.779,175.093 C58.5716667,175.300333 58.2606667,175.404 57.846,175.404 C57.6386667,175.404 57.3795,175.300333 57.0685,175.093 C56.7575,174.885667 56.5501667,174.574667 56.4465,174.16 C56.3428333,173.745333 56.2391667,173.227 56.1355,172.605 C56.0318333,171.983 55.98,171.257333 55.98,170.428 L55.98,53.492 Z" id="Path"></path>
            <path d="M119.424,57.535 L119.424,166.074 C119.424,175.404 120.668,183.697333 123.156,190.954 C125.644,198.210667 129.324167,204.275167 134.1965,209.1475 C139.068833,214.019833 145.029667,217.7 152.079,220.188 C159.128333,222.676 167.214333,223.92 176.337,223.92 C185.667,223.92 193.960333,222.624167 201.217,220.0325 C208.473667,217.440833 214.641833,213.708833 219.7215,208.8365 C224.801167,203.964167 228.636833,197.9515 231.2285,190.7985 C233.820167,183.6455 235.116,175.404 235.116,166.074 L235.116,57.535 C235.116,48.4123333 233.820167,40.2745 231.2285,33.1215 C228.636833,25.9685 224.801167,19.9558333 219.7215,15.0835 C214.641833,10.2111667 208.473667,6.47916667 201.217,3.8875 C193.960333,1.29583333 185.667,3.53927681e-13 176.337,3.53927681e-13 C167.214333,3.53927681e-13 159.128333,1.244 152.079,3.732 C145.029667,6.22 139.068833,9.84833333 134.1965,14.617 C129.324167,19.3856667 125.644,25.3983333 123.156,32.655 C120.668,39.9116667 119.424,48.205 119.424,57.535 Z M175.404,53.492 C175.404,52.4553333 175.455833,51.626 175.5595,51.004 C175.663167,50.382 175.766833,49.9155 175.8705,49.6045 C175.974167,49.2935 176.1815,49.0343333 176.4925,48.827 C176.8035,48.6196667 177.062667,48.516 177.27,48.516 C177.684667,48.516 177.995667,48.6196667 178.203,48.827 C178.410333,49.0343333 178.565833,49.2935 178.6695,49.6045 C178.773167,49.9155 178.876833,50.382 178.9805,51.004 C179.084167,51.626 179.136,52.4553333 179.136,53.492 L179.136,170.428 C179.136,171.257333 179.084167,171.983 178.9805,172.605 C178.876833,173.227 178.773167,173.745333 178.6695,174.16 C178.565833,174.574667 178.410333,174.885667 178.203,175.093 C177.995667,175.300333 177.684667,175.404 177.27,175.404 C177.062667,175.404 176.8035,175.300333 176.4925,175.093 C176.1815,174.885667 175.974167,174.574667 175.8705,174.16 C175.766833,173.745333 175.663167,173.227 175.5595,172.605 C175.455833,171.983 175.404,171.257333 175.404,170.428 L175.404,53.492 Z" id="Shape"></path>
            <polygon id="Path" points="303.536 3.11 317.531 122.534 314.421 122.534 298.871 3.11 238.848 3.11 238.848 220.81 294.828 220.81 282.077 102.63 285.187 102.63 299.493 220.81 359.516 220.81 359.516 3.11"></polygon>
            <polygon id="Path" points="474.586 3.11 362.626 3.11 362.626 51.626 390.616 51.626 390.616 220.81 446.596 220.81 446.596 51.626 474.586 51.626"></polygon>
            <path d="M479.120328,3.11 L464.192328,220.81 L520.172328,220.81 L520.172328,100.764 L523.904328,100.764 L523.904328,220.81 L579.884328,220.81 L566.200328,3.11 L479.120328,3.11 Z M536.655328,176.026 L536.655328,127.51 L506.488328,127.51 L506.488328,176.026 L536.655328,176.026 Z" id="Shape"></path>
            <path d="M638.532655,53.492 C638.532655,52.4553333 638.584489,51.626 638.688155,51.004 C638.791822,50.382 638.895489,49.9155 638.999155,49.6045 C639.102822,49.2935 639.310155,49.0343333 639.621155,48.827 C639.932155,48.6196667 640.191322,48.516 640.398655,48.516 C640.813322,48.516 641.124322,48.6196667 641.331655,48.827 C641.538989,49.0343333 641.694489,49.2935 641.798155,49.6045 C641.901822,49.9155 642.005489,50.382 642.109155,51.004 C642.212822,51.626 642.264655,52.4553333 642.264655,53.492 L642.264655,108.85 L698.244655,108.85 L698.244655,57.535 C698.244655,48.4123333 696.948822,40.2745 694.357155,33.1215 C691.765489,25.9685 687.929822,19.9558333 682.850155,15.0835 C677.770489,10.2111667 671.602322,6.47916667 664.345655,3.8875 C657.088989,1.29583333 648.795655,3.82286132e-13 639.465655,3.82286132e-13 C630.342989,3.82286132e-13 622.256989,1.244 615.207655,3.732 C608.158322,6.22 602.197489,9.84833333 597.325155,14.617 C592.452822,19.3856667 588.772655,25.3983333 586.284655,32.655 C583.796655,39.9116667 582.552655,48.205 582.552655,57.535 L582.552655,166.074 C582.552655,175.404 583.796655,183.697333 586.284655,190.954 C588.772655,198.210667 592.452822,204.275167 597.325155,209.1475 C602.197489,214.019833 608.158322,217.7 615.207655,220.188 C622.256989,222.676 630.342989,223.92 639.465655,223.92 C648.795655,223.92 657.088989,222.624167 664.345655,220.0325 C671.602322,217.440833 677.770489,213.708833 682.850155,208.8365 C687.929822,203.964167 691.765489,197.9515 694.357155,190.7985 C696.948822,183.6455 698.244655,175.404 698.244655,166.074 L698.244655,115.07 L642.264655,115.07 L642.264655,170.428 C642.264655,171.257333 642.212822,171.983 642.109155,172.605 C642.005489,173.227 641.901822,173.745333 641.798155,174.16 C641.694489,174.574667 641.538989,174.885667 641.331655,175.093 C641.124322,175.300333 640.813322,175.404 640.398655,175.404 C640.191322,175.404 639.932155,175.300333 639.621155,175.093 C639.310155,174.885667 639.102822,174.574667 638.999155,174.16 C638.895489,173.745333 638.791822,173.227 638.688155,172.605 C638.584489,171.983 638.532655,171.257333 638.532655,170.428 L638.532655,53.492 Z" id="Path"></path>
            <polygon id="Path" points="813.314655 3.11 701.354655 3.11 701.354655 51.626 729.344655 51.626 729.344655 220.81 785.324655 220.81 785.324655 51.626 813.314655 51.626"></polygon>
        </g>
    </g>
</svg>