<?xml version="1.0" encoding="UTF-8"?>
<svg width="353px" height="812px" viewBox="0 0 353 812" version="1.1" xmlns="http://www.w3.org/2000/svg" xmlns:xlink="http://www.w3.org/1999/xlink">
    <title>WORK Copy</title>
    <g id="Page-1" stroke="none" stroke-width="1" fill="none" fill-rule="evenodd" opacity="0.04">
        <g id="WORK-Copy" transform="translate(176.095000, 406.037500) rotate(90.000000) translate(-176.095000, -406.037500) translate(-229.530500, 229.997500)" fill="#FFFFFF" fill-rule="nonzero">
            <polygon id="Path" points="0 4.89 21.516 347.19 118.338 347.19 118.338 226.407 124.206 226.407 124.206 347.19 221.028 347.19 244.5 4.89 156.48 4.89 161.37 193.644 155.502 193.644 150.612 4.89 93.888 4.89 88.998 193.644 83.13 193.644 88.02 4.89"></polygon>
            <path d="M248.901,90.465 L248.901,261.126 C248.901,275.796 250.857,288.836 254.769,300.246 C258.681,311.656 264.4675,321.1915 272.1285,328.8525 C279.7895,336.5135 289.162,342.3 300.246,346.212 C311.33,350.124 324.044,352.08 338.388,352.08 C353.058,352.08 366.098,350.0425 377.508,345.9675 C388.918,341.8925 398.6165,336.0245 406.6035,328.3635 C414.5905,320.7025 420.6215,311.2485 424.6965,300.0015 C428.7715,288.7545 430.809,275.796 430.809,261.126 L430.809,90.465 C430.809,76.121 428.7715,63.3255 424.6965,52.0785 C420.6215,40.8315 414.5905,31.3775 406.6035,23.7165 C398.6165,16.0555 388.918,10.1875 377.508,6.1125 C366.098,2.0375 353.058,3.61841063e-13 338.388,3.61841063e-13 C324.044,3.61841063e-13 311.33,1.956 300.246,5.868 C289.162,9.78 279.7895,15.485 272.1285,22.983 C264.4675,30.481 258.681,39.935 254.769,51.345 C250.857,62.755 248.901,75.795 248.901,90.465 Z M336.921,84.108 C336.921,82.478 337.0025,81.174 337.1655,80.196 C337.3285,79.218 337.4915,78.4845 337.6545,77.9955 C337.8175,77.5065 338.1435,77.099 338.6325,76.773 C339.1215,76.447 339.529,76.284 339.855,76.284 C340.507,76.284 340.996,76.447 341.322,76.773 C341.648,77.099 341.8925,77.5065 342.0555,77.9955 C342.2185,78.4845 342.3815,79.218 342.5445,80.196 C342.7075,81.174 342.789,82.478 342.789,84.108 L342.789,267.972 C342.789,269.276 342.7075,270.417 342.5445,271.395 C342.3815,272.373 342.2185,273.188 342.0555,273.84 C341.8925,274.492 341.648,274.981 341.322,275.307 C340.996,275.633 340.507,275.796 339.855,275.796 C339.529,275.796 339.1215,275.633 338.6325,275.307 C338.1435,274.981 337.8175,274.492 337.6545,273.84 C337.4915,273.188 337.3285,272.373 337.1655,271.395 C337.0025,270.417 336.921,269.276 336.921,267.972 L336.921,84.108 Z" id="Shape"></path>
            <path d="M436.677,4.89 L436.677,347.19 L524.697,347.19 L524.697,224.94 L525.675,224.94 C528.283,224.94 529.75,225.3475 530.076,226.1625 C530.402,226.9775 530.565,229.178 530.565,232.764 L530.565,276.774 C530.565,290.14 530.8095,302.528 531.2985,313.938 C531.7875,325.348 533.173,336.432 535.455,347.19 L623.475,347.19 C621.193,336.432 619.8075,325.4295 619.3185,314.1825 C618.8295,302.9355 618.585,290.792 618.585,277.752 L618.585,273.84 C618.585,260.8 616.955,249.064 613.695,238.632 C610.435,228.2 606.36,219.398 601.47,212.226 C596.58,205.054 591.201,199.512 585.333,195.6 C579.465,191.688 573.923,189.732 568.707,189.732 L568.707,183.864 C573.923,183.864 579.465,182.1525 585.333,178.7295 C591.201,175.3065 596.58,170.009 601.47,162.837 C606.36,155.665 610.435,146.7815 613.695,136.1865 C616.955,125.5915 618.585,113.122 618.585,98.778 L618.585,96.333 C618.585,65.037 610.598,41.9725 594.624,27.1395 C578.65,12.3065 555.993,4.89 526.653,4.89 L436.677,4.89 Z M524.697,81.174 L525.675,81.174 C528.283,81.174 529.75,81.5815 530.076,82.3965 C530.402,83.2115 530.565,85.249 530.565,88.509 L530.565,140.832 C530.565,144.418 530.402,146.6185 530.076,147.4335 C529.75,148.2485 528.283,148.656 525.675,148.656 L524.697,148.656 L524.697,81.174 Z" id="Shape"></path>
            <polygon id="Path" points="712.473 4.89 624.453 4.89 624.453 347.19 712.473 347.19 712.473 214.182 718.341 214.182 718.341 347.19 811.251 347.19 790.713 176.04 811.251 4.89 718.341 4.89 718.341 138.387 712.473 138.387"></polygon>
        </g>
    </g>
</svg>