<?xml version="1.0" encoding="UTF-8"?>
<svg width="453px" height="172px" viewBox="0 0 453 172" version="1.1" xmlns="http://www.w3.org/2000/svg" xmlns:xlink="http://www.w3.org/1999/xlink">
    <title>ABOUT</title>
    <g id="Page-1" stroke="none" stroke-width="1" fill="none" fill-rule="evenodd">
        <g id="MOUSE-HOVER" transform="translate(-1009.000000, -438.000000)" fill="#FFFFFF" fill-rule="nonzero">
            <g id="ABOUT" transform="translate(1009.714000, 438.020000)">
                <path d="M11.424,2.38 L0,168.98 L42.84,168.98 L42.84,77.112 L45.696,77.112 L45.696,168.98 L88.536,168.98 L78.064,2.38 L11.424,2.38 Z M55.454,134.708 L55.454,97.58 L32.368,97.58 L32.368,134.708 L55.454,134.708 Z" id="Shape"></path>
                <path d="M90.678,2.38 L90.678,168.98 L134.47,168.98 C149.226,168.98 160.769,165.370333 169.099,158.151 C177.429,150.931667 181.594,140.896 181.594,128.044 L181.594,124.95 C181.594,118.762 180.681667,113.248333 178.857,108.409 C177.032333,103.569667 174.771333,99.4046667 172.074,95.914 C169.376667,92.4233333 166.481,89.7656667 163.387,87.941 C160.293,86.1163333 157.476667,85.204 154.938,85.204 L154.938,82.348 C157.635333,82.348 160.412,81.5546667 163.268,79.968 C166.124,78.3813333 168.742,76.0013333 171.122,72.828 C173.502,69.6546667 175.445667,65.688 176.953,60.928 C178.460333,56.168 179.214,50.694 179.214,44.506 L179.214,43.316 C179.214,30.1466667 175.326667,20.0316667 167.552,12.971 C159.777333,5.91033333 148.75,2.38 134.47,2.38 L90.678,2.38 Z M133.518,39.508 L133.994,39.508 C135.263333,39.508 135.977333,39.7063333 136.136,40.103 C136.294667,40.4996667 136.374,41.5706667 136.374,43.316 L136.374,61.404 C136.374,63.1493333 136.294667,64.2203333 136.136,64.617 C135.977333,65.0136667 135.263333,65.212 133.994,65.212 L133.518,65.212 L133.518,39.508 Z M133.518,102.34 L133.994,102.34 C135.263333,102.34 135.977333,102.538333 136.136,102.935 C136.294667,103.331667 136.374,104.402667 136.374,106.148 L136.374,128.044 C136.374,129.789333 136.294667,130.860333 136.136,131.257 C135.977333,131.653667 135.263333,131.852 133.994,131.852 L133.518,131.852 L133.518,102.34 Z" id="Shape"></path>
                <path d="M183.974,44.03 L183.974,127.092 C183.974,134.232 184.926,140.578667 186.83,146.132 C188.734,151.685333 191.550333,156.326333 195.279,160.055 C199.007667,163.783667 203.569333,166.6 208.964,168.504 C214.358667,170.408 220.546667,171.36 227.528,171.36 C234.668,171.36 241.014667,170.368333 246.568,168.385 C252.121333,166.401667 256.841667,163.545667 260.729,159.817 C264.616333,156.088333 267.551667,151.487 269.535,146.013 C271.518333,140.539 272.51,134.232 272.51,127.092 L272.51,44.03 C272.51,37.0486667 271.518333,30.821 269.535,25.347 C267.551667,19.873 264.616333,15.2716667 260.729,11.543 C256.841667,7.81433333 252.121333,4.95833333 246.568,2.975 C241.014667,0.991666667 234.668,0 227.528,0 C220.546667,0 214.358667,0.952 208.964,2.856 C203.569333,4.76 199.007667,7.53666667 195.279,11.186 C191.550333,14.8353333 188.734,19.4366667 186.83,24.99 C184.926,30.5433333 183.974,36.89 183.974,44.03 Z M226.814,40.936 C226.814,40.1426667 226.853667,39.508 226.933,39.032 C227.012333,38.556 227.091667,38.199 227.171,37.961 C227.250333,37.723 227.409,37.5246667 227.647,37.366 C227.885,37.2073333 228.083333,37.128 228.242,37.128 C228.559333,37.128 228.797333,37.2073333 228.956,37.366 C229.114667,37.5246667 229.233667,37.723 229.313,37.961 C229.392333,38.199 229.471667,38.556 229.551,39.032 C229.630333,39.508 229.67,40.1426667 229.67,40.936 L229.67,130.424 C229.67,131.058667 229.630333,131.614 229.551,132.09 C229.471667,132.566 229.392333,132.962667 229.313,133.28 C229.233667,133.597333 229.114667,133.835333 228.956,133.994 C228.797333,134.152667 228.559333,134.232 228.242,134.232 C228.083333,134.232 227.885,134.152667 227.647,133.994 C227.409,133.835333 227.250333,133.597333 227.171,133.28 C227.091667,132.962667 227.012333,132.566 226.933,132.09 C226.853667,131.614 226.814,131.058667 226.814,130.424 L226.814,40.936 Z" id="Shape"></path>
                <path d="M275.366,2.38 L275.366,127.092 C275.366,134.232 276.318,140.578667 278.222,146.132 C280.126,151.685333 282.902667,156.326333 286.552,160.055 C290.201333,163.783667 294.723333,166.6 300.118,168.504 C305.512667,170.408 311.78,171.36 318.92,171.36 C326.06,171.36 332.446333,170.368333 338.079,168.385 C343.711667,166.401667 348.432,163.545667 352.24,159.817 C356.048,156.088333 358.943667,151.487 360.927,146.013 C362.910333,140.539 363.902,134.232 363.902,127.092 L363.902,2.38 L321.062,2.38 L321.062,130.424 C321.062,131.058667 321.022333,131.614 320.943,132.09 C320.863667,132.566 320.784333,132.962667 320.705,133.28 C320.625667,133.597333 320.506667,133.835333 320.348,133.994 C320.189333,134.152667 319.951333,134.232 319.634,134.232 C319.475333,134.232 319.277,134.152667 319.039,133.994 C318.801,133.835333 318.642333,133.597333 318.563,133.28 C318.483667,132.962667 318.404333,132.566 318.325,132.09 C318.245667,131.614 318.206,131.058667 318.206,130.424 L318.206,2.38 L275.366,2.38 Z" id="Path"></path>
                <polygon id="Path" points="451.962 2.38 366.282 2.38 366.282 39.508 387.702 39.508 387.702 168.98 430.542 168.98 430.542 39.508 451.962 39.508"></polygon>
            </g>
        </g>
    </g>
</svg>