<svg width="29" height="29" viewBox="0 0 29 29" xmlns="http://www.w3.org/2000/svg">
    <g fill-rule="nonzero" fill="none">
        <path d="M0 2.058C0 .922.922 0 2.058 0h24.883C28.08 0 29 .922 29 2.058v24.883A2.058 2.058 0 0 1 26.941 29H2.058A2.058 2.058 0 0 1 0 26.941V2.058z" fill="#0A66C2"/>
        <path d="M5.5 8a2.5 2.5 0 1 0 0-5 2.5 2.5 0 0 0 0 5zM10 10.349h4.356v1.886S15.538 10 18.754 10C21.624 10 24 11.336 24 15.41V24h-4.514v-7.549c0-2.403-1.357-2.667-2.39-2.667-2.146 0-2.514 1.75-2.514 2.98V24H10V10.349zM4 10h3v14H4z" fill="#FFF"/>
    </g>
</svg>
